<?xml version="1.0" standalone="no"?>
<!DOCTYPE svg PUBLIC "-//W3C//DTD SVG 20010904//EN"
 "http://www.w3.org/TR/2001/REC-SVG-20010904/DTD/svg10.dtd">
<svg version="1.0" xmlns="http://www.w3.org/2000/svg"
 width="300.000000pt" height="300.000000pt" viewBox="0 0 300.000000 300.000000"
 preserveAspectRatio="xMidYMid meet">
<metadata>
Created by potrace 1.10, written by Peter Selinger 2001-2011
</metadata>
<g transform="translate(0.000000,300.000000) scale(0.100000,-0.100000)"
fill="#000000" stroke="none">
<path d="M1165 2449 c-316 -97 -337 -107 -372 -167 -38 -65 -34 -107 34 -332
l59 -195 33 3 c18 2 43 -4 58 -13 25 -17 26 -17 21 6 -3 13 -33 113 -67 221
-33 109 -61 208 -61 222 0 51 23 62 317 151 155 47 288 85 297 85 8 0 26 -10
40 -22 20 -19 49 -102 157 -458 180 -595 177 -584 159 -617 -17 -29 -5 -25
-399 -145 -189 -57 -206 -61 -230 -47 -14 8 -30 24 -36 36 -7 16 -15 21 -31
17 -12 -3 -38 1 -58 10 -42 17 -43 14 -15 -51 25 -59 43 -80 91 -104 57 -29
105 -23 301 37 100 31 227 69 282 85 94 28 134 47 161 74 26 25 47 83 47 125
0 46 -276 976 -313 1057 -29 64 -80 97 -154 100 -52 2 -99 -10 -321 -78z m393
19 c39 -24 55 -52 81 -149 22 -80 74 -252 127 -421 19 -59 34 -114 34 -123 0
-8 4 -23 9 -33 6 -9 21 -53 34 -97 14 -44 34 -109 45 -145 30 -97 35 -135 23
-172 -21 -65 -53 -83 -231 -135 -30 -9 -64 -19 -75 -24 -11 -4 -56 -19 -100
-32 -44 -13 -112 -34 -152 -46 -104 -32 -155 -27 -206 21 -46 43 -32 50 28 13
23 -14 55 -25 76 -25 30 0 130 26 179 47 8 4 20 8 25 9 6 1 12 3 15 4 3 1 14
4 25 5 11 2 44 13 74 24 30 11 56 19 58 17 2 -1 45 11 96 28 153 51 181 88
151 198 -9 35 -16 77 -16 93 1 18 -2 25 -6 18 -5 -8 -15 15 -27 60 -10 39 -22
79 -26 87 -4 8 -20 60 -37 115 -16 55 -40 134 -52 175 -13 41 -32 102 -42 135
-11 33 -20 73 -20 89 1 15 -2 25 -5 22 -9 -9 -55 153 -47 166 4 6 3 8 -2 5 -6
-3 -18 7 -29 23 -12 18 -32 31 -55 36 -44 9 -104 5 -108 -7 -2 -5 -11 -9 -20
-9 -9 0 -51 -12 -92 -25 -41 -14 -81 -25 -88 -25 -8 0 -28 -6 -45 -14 -18 -7
-59 -21 -92 -31 -127 -36 -158 -48 -190 -76 -46 -41 -49 -74 -19 -177 15 -48
28 -98 31 -112 2 -14 9 -34 14 -45 21 -45 36 -124 24 -128 -11 -5 -46 96 -61
171 -3 18 -9 30 -14 27 -4 -2 -10 12 -13 33 -4 20 -13 61 -22 91 -29 104 21
190 120 208 11 2 27 6 35 10 19 8 20 8 55 17 17 4 47 14 68 22 20 8 40 14 45
15 4 1 12 3 17 5 25 8 161 47 170 48 47 10 82 20 90 26 29 23 93 18 143 -12z"/>
<path d="M1283 2303 c-15 -6 -17 -29 -3 -38 18 -11 60 7 60 26 0 19 -27 25
-57 12z"/>
<path d="M1128 2257 c-50 -16 -68 -27 -68 -39 0 -24 28 -22 110 5 41 14 65 27
65 37 0 22 -31 21 -107 -3z"/>
<path d="M1149 1957 c-36 -24 -48 -52 -30 -70 8 -8 19 -3 39 16 64 61 157 2
120 -78 -10 -22 -9 -28 3 -36 21 -13 49 26 49 68 0 48 -23 88 -64 107 -46 22
-77 20 -117 -7z"/>
<path d="M1848 1905 c8 -25 19 -45 26 -45 42 1 590 41 593 44 2 2 -54 7 -124
11 -70 3 -209 13 -308 21 -99 8 -185 14 -191 14 -8 0 -7 -13 4 -45z"/>
<path d="M1122 1777 c-38 -61 -76 -127 -86 -145 -25 -48 -46 -42 -46 12 0 35
-5 48 -22 60 -51 36 -55 27 -65 -116 -14 -228 -15 -226 117 -303 132 -77 169
-63 271 104 38 62 69 122 69 132 0 10 -10 21 -22 25 -17 5 -27 0 -43 -20 -11
-14 -26 -26 -33 -26 -16 0 -15 7 7 39 27 37 29 61 8 75 -15 9 -22 6 -40 -15
-12 -14 -27 -35 -33 -45 -8 -13 -15 -16 -22 -9 -8 7 -2 23 18 54 23 34 27 47
19 62 -17 33 -45 22 -75 -28 -34 -60 -31 -56 -44 -48 -8 5 -5 16 8 38 11 18
47 77 80 131 49 79 59 103 51 117 -22 41 -46 22 -117 -94z m-133 -192 c25 -8
61 2 61 17 0 6 9 1 19 -11 21 -24 71 -36 71 -17 0 6 9 -4 21 -23 13 -22 26
-32 37 -29 18 5 42 -13 42 -30 0 -14 47 -21 60 -8 10 10 -4 -18 -37 -77 -7
-12 -13 -17 -13 -12 -1 6 -7 -4 -15 -22 -25 -59 -64 -93 -106 -93 -21 0 -41 5
-44 10 -4 6 -12 7 -18 4 -7 -4 -9 -4 -5 1 4 4 -19 24 -52 43 -36 22 -63 46
-70 63 -12 27 -8 128 7 204 5 28 6 28 14 8 4 -12 17 -24 28 -28z"/>
<path d="M1917 1675 l16 -48 76 6 c42 4 166 11 276 18 196 11 273 19 230 25
-11 2 -128 10 -260 19 -132 8 -266 18 -297 21 l-58 7 17 -48z"/>
<path d="M1980 1478 c0 -28 22 -78 33 -78 7 0 93 7 192 15 99 8 217 15 263 15
165 0 75 16 -188 33 -149 10 -277 20 -285 23 -9 4 -15 0 -15 -8z"/>
<path d="M1483 1383 c-32 -6 -43 -25 -35 -58 11 -38 30 -49 65 -36 35 14 42
33 25 67 -14 30 -21 33 -55 27z m35 -51 c3 -16 -2 -22 -17 -22 -24 0 -35 15
-27 36 9 23 40 13 44 -14z"/>
<path d="M1954 1235 c-4 -9 -23 -27 -43 -40 -19 -14 -31 -25 -26 -25 6 0 89 7
185 15 96 8 207 15 247 15 39 0 74 4 77 8 3 5 -90 14 -207 21 -117 7 -215 15
-220 18 -4 2 -10 -3 -13 -12z"/>
<path d="M449 897 c-55 -29 -86 -92 -75 -153 15 -79 113 -136 195 -114 81 21
117 75 109 161 -11 108 -125 161 -229 106z m135 -53 c45 -44 44 -108 -1 -144
-30 -24 -63 -26 -102 -5 -33 16 -41 33 -41 81 0 49 37 84 89 84 23 0 46 -7 55
-16z"/>
<path d="M840 776 l0 -146 33 0 32 0 -4 85 c-3 87 4 102 28 63 8 -13 37 -51
65 -85 40 -49 57 -63 79 -63 l27 0 0 143 0 142 -32 -1 -33 -1 4 -87 c2 -47 1
-86 -2 -86 -3 0 -35 38 -72 85 -36 47 -72 85 -80 85 -7 0 -20 3 -29 6 -14 5
-16 -11 -16 -140z"/>
<path d="M1274 911 c-2 -2 -4 -67 -4 -143 l0 -138 105 0 105 0 0 25 c0 24 -2
25 -70 25 l-70 0 0 119 0 118 -31 -1 c-17 -1 -32 -3 -35 -5z"/>
<path d="M1629 910 c0 -3 -1 -67 -2 -142 l-2 -138 33 0 32 0 0 144 0 143 -30
-1 c-16 -1 -30 -3 -31 -6z"/>
<path d="M1869 916 c0 0 -1 -65 -2 -144 l-2 -142 34 0 34 0 -5 85 c-2 47 -1
84 2 83 4 -2 36 -39 72 -83 51 -64 71 -81 95 -83 l30 -3 -1 142 -1 142 -33 2
-34 3 4 -89 c1 -49 0 -89 -3 -89 -4 0 -15 12 -25 27 -47 73 -109 138 -136 144
-15 4 -28 6 -29 5z"/>
<path d="M2300 773 l0 -143 110 0 110 0 0 25 c0 25 -1 25 -80 25 l-80 0 0 35
0 35 70 0 c68 0 70 1 70 25 0 24 -2 25 -70 25 l-70 0 0 30 0 30 79 0 c80 0 80
0 78 26 l-2 25 -108 2 -107 2 0 -142z"/>
<path d="M740 565 c-13 -16 -6 -35 15 -35 8 0 17 -5 21 -12 5 -8 0 -9 -14 -6
-12 4 -24 2 -27 -2 -7 -12 28 -22 49 -14 22 9 20 35 -4 41 -26 7 -26 23 1 23
11 0 17 5 14 10 -9 15 -41 12 -55 -5z"/>
<path d="M924 566 c-8 -21 -1 -67 11 -66 6 0 10 6 10 12 0 7 8 14 18 16 12 2
17 -3 17 -17 0 -12 5 -21 10 -21 6 0 10 20 10 45 0 46 -14 61 -23 25 -6 -23
-27 -27 -27 -6 0 21 -19 30 -26 12z"/>
<path d="M1137 562 c-22 -24 -21 -35 3 -57 41 -37 97 24 58 63 -17 17 -42 15
-61 -6z m50 -18 c8 -21 -13 -42 -28 -27 -13 13 -5 43 11 43 6 0 13 -7 17 -16z"/>
<path d="M1340 533 c1 -42 2 -46 14 -30 7 9 21 17 30 17 9 0 19 7 22 15 9 21
-14 45 -42 45 -22 0 -24 -4 -24 -47z"/>
<path d="M1537 573 c-11 -10 -8 -71 3 -78 6 -3 13 1 16 9 3 9 15 16 25 16 24
0 26 45 3 54 -20 8 -39 8 -47 -1z"/>
<path d="M1730 535 c0 -25 5 -45 10 -45 6 0 10 20 10 45 0 25 -4 45 -10 45 -5
0 -10 -20 -10 -45z"/>
<path d="M1880 535 c0 -25 5 -45 10 -45 6 0 10 12 10 28 l0 27 25 -30 c13 -16
25 -28 25 -25 6 26 3 75 -5 75 -5 0 -9 -6 -9 -12 3 -20 -14 -15 -26 7 -18 33
-30 23 -30 -25z"/>
<path d="M2096 564 c-34 -34 -2 -84 44 -69 20 6 28 45 10 45 -5 0 -10 -7 -10
-16 0 -9 -7 -14 -17 -12 -10 2 -18 12 -18 23 0 16 6 20 28 18 29 -2 37 11 11
21 -24 9 -31 8 -48 -10z"/>
</g>
</svg>
